<?xml version="1.0" encoding="UTF-8"?>
<svg id="Camada_1" data-name="Camada 1" xmlns="http://www.w3.org/2000/svg" viewBox="310 540 2690 420">
  <defs>
    <style>
      .cls-1 {
        fill: #fff;
      }

      .cls-2 {
        fill: #23d8d3;
      }
    </style>
  </defs>
  <g>
    <path class="cls-1" d="M911.16,616.7l-39.03,191.09c-3.61,17.65,5.32,30.31,21.82,30.31h70.61l-7.29,35.69h-81.35c-34.53,0-53.46-25.71-46.72-58.71l40.51-198.38h41.44Z"/>
    <path class="cls-1" d="M1142.58,795.13h-123.18c-2.75,34.15,12.46,47.97,50.45,47.97,18.42,0,49.05-3.46,66.72-7.29l-6.66,32.61c-25.73,5.76-50.54,8.83-70.49,8.83-66.38,0-91.2-30.69-77.64-97.08l.94-4.61c13.4-65.62,50.14-97.08,111.54-97.08s82.2,33.38,70.29,91.71c-4.08,19.96-8.16,24.94-21.98,24.94ZM1125.67,763.28c6.28-32.61-5.39-50.65-38.39-50.65s-51.48,15.35-61.76,50.65h100.15Z"/>
    <path class="cls-1" d="M1218.4,681.94l20.71,146.58c1.14,3.84,2.59,4.22,4.13,4.22,1.15,0,2.77-.39,5.09-4.22l80.21-146.58h43.36l-97.26,168.07c-11.91,20.72-21.68,27.24-40.48,27.24s-27.06-6.52-30.51-27.24l-28.6-168.07h43.36Z"/>
    <path class="cls-1" d="M1505.99,795.13h-123.18c-2.75,34.15,12.46,47.97,50.45,47.97,18.42,0,49.06-3.46,66.72-7.29l-6.66,32.61c-25.73,5.76-50.53,8.83-70.49,8.83-66.38,0-91.2-30.69-77.64-97.08l.94-4.61c13.4-65.62,50.14-97.08,111.54-97.08s82.2,33.38,70.29,91.71c-4.08,19.96-8.16,24.94-21.98,24.94ZM1489.09,763.28c6.28-32.61-5.39-50.65-38.39-50.65s-51.49,15.35-61.77,50.65h100.15Z"/>
    <path class="cls-1" d="M1587.66,747.17l-25.86,126.63h-39.91l25.86-126.63c10.42-51.03,30.53-68.68,90.77-68.68,13.43,0,25.94.77,38.21,2.69l-6.82,33.38c-12.04-1.15-26.55-1.54-34.61-1.54-34.91,0-42.08,6.91-47.64,34.15Z"/>
  </g>
  <g>
    <polygon class="cls-1" points="1995.41 616.7 1777.45 616.7 1770.16 652.39 1858.42 652.39 1813.2 873.8 1854.26 873.8 1899.48 652.39 1988.12 652.39 1995.41 616.7"/>
    <path class="cls-1" d="M2357.31,678.48c-61.4,0-98.14,31.46-111.54,97.08l-.94,4.61c-13.56,66.38,11.26,97.08,77.64,97.08,19.95,0,44.75-3.07,70.49-8.83l6.66-32.61c-17.67,3.84-48.31,7.29-66.72,7.29-37.99,0-53.2-13.81-50.45-47.97h123.18c13.81,0,17.9-4.99,21.98-24.94,11.91-58.32-10.05-91.71-70.29-91.71ZM2288.57,763.28c10.28-35.3,28.76-50.65,61.77-50.65s44.66,18.04,38.39,50.65h-100.15Z"/>
    <path class="cls-1" d="M2551.43,678.48c-61.78,0-93.35,24.94-105.03,82.12l-23.12,113.2h39.91l22.81-111.67c6.97-34.15,24.61-49.12,58.38-49.12s44.91,14.97,37.94,49.12l-22.81,111.67h39.91l23.12-113.2c11.68-57.17-9.71-82.12-71.1-82.12Z"/>
    <path class="cls-1" d="M2675.05,807.41l18.65-91.33h50.31l6.97-34.15h-50.31l10.19-49.89h-39.91l-36.13,176.9c-16.32,79.92,32.38,71.31,79.14,61.78l6.5-31.85c-18.92,3.2-55.48,17.8-45.42-31.46Z"/>
    <path class="cls-1" d="M2835.08,758.68c-21.09-3.84-42.17-7.67-38.49-25.71,2.82-13.81,16.05-20.34,52.5-20.34,23.79,0,43.96,2.69,62.59,7.29l6.66-32.61c-20.31-5.76-40.02-8.83-64.58-8.83-57.94,0-89.64,18.03-97.56,56.79-10.27,50.27,36.6,55.64,65.74,61.39,27.37,4.99,43.48,8.83,40.19,24.94-2.98,14.58-19.74,21.49-56.58,21.49-23.41,0-44.73-2.69-66.05-7.29l-6.74,33c21.93,5.37,42.79,8.44,67.73,8.44,59.1,0,93.86-18.03,102.01-57.94,9.64-47.2-33.3-54.87-67.43-60.63Z"/>
    <path class="cls-1" d="M2176.97,772.22c69.94-18.45,178.11-150.43,108.5-183.69-31.27-14.94-90.94-5.55-135.23,151.35l-4.14,11.23c-6.12,3.16-27.84,5.75-32.25,5.24.34-2.16,1.13-6.56,1.4-8.62,6.01-49.24-14.75-69.22-71.98-69.22-22.65,0-43.57,3.04-68.57,8.79l-6.74,32.99c22.41-4.58,44.86-7.25,63.67-7.25,38.37,0,49.5,9.17,43.23,39.86l-.95,4.64c-23.08-1.55-39.1-1.92-48.32-1.92-61.02,0-90.97,18.81-99.43,60.22-18.07,88.48,157.44,91.54,177.86-10.34l4.38-21.45c5.79-.26,17.18-1.13,26.55-2.77l-9.51,25.76c-36.04,96.62,69.91,61.46,80.98,59.43l9.07-35.83c-10.8.91-64.54,19.67-51.02-20.94l12.48-37.49ZM2066,796.27c-6.51,31.87-26.56,47.59-65.35,47.59-55.38,0-46.2-58.73,21.21-58.73,10.39,0,28.24.8,46.02,1.92l-1.88,9.22ZM2274.97,608.83c20.25,9.69-62.42,114.34-92.69,133.71,17.62-48.61,70.99-144.09,92.69-133.71Z"/>
  </g>
  <polygon class="cls-2" points="322.63 778.33 631.73 546.51 631.73 947.45 554.45 701.06 322.63 778.33"/>
</svg>